<mxfile host="app.diagrams.net" agent="Mozilla/5.0 (Windows NT 10.0; Win64; x64) AppleWebKit/537.36 (KHTML, like Gecko) Chrome/128.0.0.0 Safari/537.36" version="24.7.13">
  <diagram name="Page-1" id="XvkezHITvA0S5k1SEs2N">
    <mxGraphModel dx="1134" dy="707" grid="1" gridSize="10" guides="1" tooltips="1" connect="1" arrows="1" fold="1" page="1" pageScale="1" pageWidth="850" pageHeight="1100" math="0" shadow="0">
      <root>
        <mxCell id="0" />
        <mxCell id="1" parent="0" />
        <mxCell id="ml4NnkUa15ox4P1RjirH-3" style="edgeStyle=orthogonalEdgeStyle;rounded=0;orthogonalLoop=1;jettySize=auto;html=1;exitX=0.5;exitY=0.5;exitDx=0;exitDy=15;exitPerimeter=0;entryX=0.5;entryY=0;entryDx=0;entryDy=0;" parent="1" source="ml4NnkUa15ox4P1RjirH-1" target="ml4NnkUa15ox4P1RjirH-2" edge="1">
          <mxGeometry relative="1" as="geometry" />
        </mxCell>
        <mxCell id="ml4NnkUa15ox4P1RjirH-1" value="start main" style="html=1;dashed=0;whiteSpace=wrap;shape=mxgraph.dfd.start" parent="1" vertex="1">
          <mxGeometry x="61" y="5" width="80" height="30" as="geometry" />
        </mxCell>
        <mxCell id="ml4NnkUa15ox4P1RjirH-5" style="edgeStyle=orthogonalEdgeStyle;rounded=0;orthogonalLoop=1;jettySize=auto;html=1;exitX=0.5;exitY=1;exitDx=0;exitDy=0;entryX=0.5;entryY=0;entryDx=0;entryDy=0;" parent="1" source="ml4NnkUa15ox4P1RjirH-2" target="ml4NnkUa15ox4P1RjirH-4" edge="1">
          <mxGeometry relative="1" as="geometry" />
        </mxCell>
        <mxCell id="ml4NnkUa15ox4P1RjirH-2" value="init error,&lt;div&gt;needCycle&lt;/div&gt;" style="html=1;dashed=0;whiteSpace=wrap;" parent="1" vertex="1">
          <mxGeometry x="51" y="65" width="100" height="50" as="geometry" />
        </mxCell>
        <mxCell id="ml4NnkUa15ox4P1RjirH-7" value="" style="group" parent="1" vertex="1" connectable="0">
          <mxGeometry x="51" y="145" width="100" height="60" as="geometry" />
        </mxCell>
        <mxCell id="ml4NnkUa15ox4P1RjirH-4" value="" style="verticalLabelPosition=bottom;verticalAlign=top;html=1;shape=process;whiteSpace=wrap;rounded=1;size=0.14;arcSize=6;" parent="ml4NnkUa15ox4P1RjirH-7" vertex="1">
          <mxGeometry width="100" height="60" as="geometry" />
        </mxCell>
        <mxCell id="ml4NnkUa15ox4P1RjirH-6" value="readTo a" style="text;strokeColor=none;align=center;fillColor=none;html=1;verticalAlign=middle;whiteSpace=wrap;rounded=0;" parent="ml4NnkUa15ox4P1RjirH-7" vertex="1">
          <mxGeometry x="15" width="70" height="60" as="geometry" />
        </mxCell>
        <mxCell id="ml4NnkUa15ox4P1RjirH-8" value="" style="group" parent="1" vertex="1" connectable="0">
          <mxGeometry x="51" y="235" width="100" height="60" as="geometry" />
        </mxCell>
        <mxCell id="ml4NnkUa15ox4P1RjirH-9" value="" style="verticalLabelPosition=bottom;verticalAlign=top;html=1;shape=process;whiteSpace=wrap;rounded=1;size=0.14;arcSize=6;" parent="ml4NnkUa15ox4P1RjirH-8" vertex="1">
          <mxGeometry width="100" height="60" as="geometry" />
        </mxCell>
        <mxCell id="ml4NnkUa15ox4P1RjirH-10" value="readTo&amp;nbsp;b" style="text;strokeColor=none;align=center;fillColor=none;html=1;verticalAlign=middle;whiteSpace=wrap;rounded=0;" parent="ml4NnkUa15ox4P1RjirH-8" vertex="1">
          <mxGeometry x="15" width="70" height="60" as="geometry" />
        </mxCell>
        <mxCell id="ml4NnkUa15ox4P1RjirH-11" value="" style="group" parent="1" vertex="1" connectable="0">
          <mxGeometry x="51" y="325" width="100" height="60" as="geometry" />
        </mxCell>
        <mxCell id="ml4NnkUa15ox4P1RjirH-12" value="" style="verticalLabelPosition=bottom;verticalAlign=top;html=1;shape=process;whiteSpace=wrap;rounded=1;size=0.14;arcSize=6;" parent="ml4NnkUa15ox4P1RjirH-11" vertex="1">
          <mxGeometry width="100" height="60" as="geometry" />
        </mxCell>
        <mxCell id="ml4NnkUa15ox4P1RjirH-13" value="readTo&amp;nbsp;h" style="text;strokeColor=none;align=center;fillColor=none;html=1;verticalAlign=middle;whiteSpace=wrap;rounded=0;" parent="ml4NnkUa15ox4P1RjirH-11" vertex="1">
          <mxGeometry x="15" width="70" height="60" as="geometry" />
        </mxCell>
        <mxCell id="ml4NnkUa15ox4P1RjirH-14" style="edgeStyle=orthogonalEdgeStyle;rounded=0;orthogonalLoop=1;jettySize=auto;html=1;exitX=0.5;exitY=1;exitDx=0;exitDy=0;entryX=0.5;entryY=0;entryDx=0;entryDy=0;" parent="1" source="ml4NnkUa15ox4P1RjirH-6" target="ml4NnkUa15ox4P1RjirH-10" edge="1">
          <mxGeometry relative="1" as="geometry" />
        </mxCell>
        <mxCell id="ml4NnkUa15ox4P1RjirH-15" style="edgeStyle=orthogonalEdgeStyle;rounded=0;orthogonalLoop=1;jettySize=auto;html=1;exitX=0.5;exitY=1;exitDx=0;exitDy=0;entryX=0.5;entryY=0;entryDx=0;entryDy=0;" parent="1" source="ml4NnkUa15ox4P1RjirH-10" target="ml4NnkUa15ox4P1RjirH-13" edge="1">
          <mxGeometry relative="1" as="geometry" />
        </mxCell>
        <mxCell id="ml4NnkUa15ox4P1RjirH-21" style="edgeStyle=orthogonalEdgeStyle;rounded=0;orthogonalLoop=1;jettySize=auto;html=1;exitX=0.5;exitY=1;exitDx=0;exitDy=0;entryX=0.5;entryY=0;entryDx=0;entryDy=0;" parent="1" source="ml4NnkUa15ox4P1RjirH-16" target="ml4NnkUa15ox4P1RjirH-20" edge="1">
          <mxGeometry relative="1" as="geometry">
            <mxPoint x="101.28571428571422" y="555" as="targetPoint" />
          </mxGeometry>
        </mxCell>
        <mxCell id="ml4NnkUa15ox4P1RjirH-16" value="log&amp;nbsp;&lt;span style=&quot;background-color: initial;&quot;&gt;&quot;x, y&quot;&lt;/span&gt;&lt;div&gt;&lt;span style=&quot;background-color: initial;&quot;&gt;for table&lt;/span&gt;&lt;/div&gt;" style="shape=parallelogram;perimeter=parallelogramPerimeter;whiteSpace=wrap;html=1;dashed=0;" parent="1" vertex="1">
          <mxGeometry x="51" y="415" width="100" height="50" as="geometry" />
        </mxCell>
        <mxCell id="ml4NnkUa15ox4P1RjirH-17" style="edgeStyle=orthogonalEdgeStyle;rounded=0;orthogonalLoop=1;jettySize=auto;html=1;exitX=0.5;exitY=1;exitDx=0;exitDy=0;entryX=0.5;entryY=0;entryDx=0;entryDy=0;" parent="1" source="ml4NnkUa15ox4P1RjirH-13" target="ml4NnkUa15ox4P1RjirH-16" edge="1">
          <mxGeometry relative="1" as="geometry" />
        </mxCell>
        <mxCell id="ml4NnkUa15ox4P1RjirH-18" value="" style="group" parent="1" vertex="1" connectable="0">
          <mxGeometry x="51" y="495" width="100" height="60" as="geometry" />
        </mxCell>
        <mxCell id="ml4NnkUa15ox4P1RjirH-19" value="" style="verticalLabelPosition=bottom;verticalAlign=top;html=1;shape=process;whiteSpace=wrap;rounded=1;size=0.14;arcSize=6;" parent="ml4NnkUa15ox4P1RjirH-18" vertex="1">
          <mxGeometry width="100" height="60" as="geometry" />
        </mxCell>
        <mxCell id="ml4NnkUa15ox4P1RjirH-20" value="calculate&amp;nbsp;&lt;span style=&quot;background-color: initial;&quot;&gt;ans&lt;/span&gt;&lt;div&gt;for A, write error if exists&lt;/div&gt;" style="text;strokeColor=none;align=center;fillColor=none;html=1;verticalAlign=middle;whiteSpace=wrap;rounded=0;" parent="ml4NnkUa15ox4P1RjirH-18" vertex="1">
          <mxGeometry x="15" width="70" height="60" as="geometry" />
        </mxCell>
        <mxCell id="ml4NnkUa15ox4P1RjirH-22" value="" style="group" parent="1" vertex="1" connectable="0">
          <mxGeometry x="51" y="585" width="100" height="60" as="geometry" />
        </mxCell>
        <mxCell id="ml4NnkUa15ox4P1RjirH-23" value="" style="verticalLabelPosition=bottom;verticalAlign=top;html=1;shape=process;whiteSpace=wrap;rounded=1;size=0.14;arcSize=6;" parent="ml4NnkUa15ox4P1RjirH-22" vertex="1">
          <mxGeometry width="100" height="60" as="geometry" />
        </mxCell>
        <mxCell id="ml4NnkUa15ox4P1RjirH-24" value="log ans&lt;div&gt;or error if exists&lt;/div&gt;" style="text;strokeColor=none;align=center;fillColor=none;html=1;verticalAlign=middle;whiteSpace=wrap;rounded=0;" parent="ml4NnkUa15ox4P1RjirH-22" vertex="1">
          <mxGeometry x="15" width="70" height="60" as="geometry" />
        </mxCell>
        <mxCell id="ml4NnkUa15ox4P1RjirH-25" style="edgeStyle=orthogonalEdgeStyle;rounded=0;orthogonalLoop=1;jettySize=auto;html=1;exitX=0.5;exitY=1;exitDx=0;exitDy=0;entryX=0.5;entryY=0;entryDx=0;entryDy=0;" parent="1" source="ml4NnkUa15ox4P1RjirH-20" target="ml4NnkUa15ox4P1RjirH-24" edge="1">
          <mxGeometry relative="1" as="geometry">
            <mxPoint x="101.33333333333348" y="585" as="targetPoint" />
          </mxGeometry>
        </mxCell>
        <mxCell id="ytkeiAz3e-5avgEN_o9H-12" value="Needed" style="edgeStyle=orthogonalEdgeStyle;rounded=0;orthogonalLoop=1;jettySize=auto;html=1;" parent="1" source="ml4NnkUa15ox4P1RjirH-26" target="ml4NnkUa15ox4P1RjirH-29" edge="1">
          <mxGeometry x="-0.0476" y="-29" relative="1" as="geometry">
            <mxPoint as="offset" />
          </mxGeometry>
        </mxCell>
        <mxCell id="ml4NnkUa15ox4P1RjirH-26" value="check if&lt;div&gt;loop&amp;nbsp;&lt;span style=&quot;background-color: initial;&quot;&gt;is&lt;/span&gt;&lt;/div&gt;&lt;div&gt;&lt;span style=&quot;background-color: initial;&quot;&gt;needed&lt;/span&gt;&lt;/div&gt;" style="rhombus;whiteSpace=wrap;html=1;" parent="1" vertex="1">
          <mxGeometry x="61" y="675" width="80" height="80" as="geometry" />
        </mxCell>
        <mxCell id="ml4NnkUa15ox4P1RjirH-27" style="edgeStyle=orthogonalEdgeStyle;rounded=0;orthogonalLoop=1;jettySize=auto;html=1;exitX=0.5;exitY=1;exitDx=0;exitDy=0;entryX=0.5;entryY=0;entryDx=0;entryDy=0;" parent="1" source="ml4NnkUa15ox4P1RjirH-24" target="ml4NnkUa15ox4P1RjirH-26" edge="1">
          <mxGeometry relative="1" as="geometry" />
        </mxCell>
        <mxCell id="ml4NnkUa15ox4P1RjirH-35" value="step &amp;lt; 0" style="edgeStyle=orthogonalEdgeStyle;rounded=0;orthogonalLoop=1;jettySize=auto;html=1;exitX=1;exitY=0.5;exitDx=0;exitDy=0;entryX=0.5;entryY=0;entryDx=0;entryDy=0;" parent="1" source="ml4NnkUa15ox4P1RjirH-29" target="ml4NnkUa15ox4P1RjirH-34" edge="1">
          <mxGeometry x="-0.2565" y="13" relative="1" as="geometry">
            <mxPoint as="offset" />
          </mxGeometry>
        </mxCell>
        <mxCell id="ytkeiAz3e-5avgEN_o9H-11" value="step&amp;nbsp;&amp;gt; 0" style="edgeStyle=orthogonalEdgeStyle;rounded=0;orthogonalLoop=1;jettySize=auto;html=1;" parent="1" source="ml4NnkUa15ox4P1RjirH-29" target="ml4NnkUa15ox4P1RjirH-32" edge="1">
          <mxGeometry x="-0.0182" y="29" relative="1" as="geometry">
            <mxPoint as="offset" />
          </mxGeometry>
        </mxCell>
        <mxCell id="ml4NnkUa15ox4P1RjirH-29" value="check if&lt;div&gt;step&lt;/div&gt;&lt;div&gt;above 0&lt;/div&gt;" style="rhombus;whiteSpace=wrap;html=1;" parent="1" vertex="1">
          <mxGeometry x="61" y="793" width="80" height="80" as="geometry" />
        </mxCell>
        <mxCell id="ytkeiAz3e-5avgEN_o9H-17" style="edgeStyle=orthogonalEdgeStyle;rounded=0;orthogonalLoop=1;jettySize=auto;html=1;exitX=0.5;exitY=1;exitDx=0;exitDy=0;entryX=0.5;entryY=0;entryDx=0;entryDy=0;" parent="1" source="ml4NnkUa15ox4P1RjirH-32" target="ytkeiAz3e-5avgEN_o9H-14" edge="1">
          <mxGeometry relative="1" as="geometry" />
        </mxCell>
        <mxCell id="ml4NnkUa15ox4P1RjirH-32" value="&lt;div&gt;x := Min(a, b);&lt;/div&gt;&lt;div&gt;finish := Max(a, b);&lt;/div&gt;&lt;div&gt;comparator := (a, b) =&amp;gt; a&amp;lt;b;&lt;/div&gt;" style="html=1;dashed=0;whiteSpace=wrap;" parent="1" vertex="1">
          <mxGeometry x="33.5" y="928" width="135" height="70" as="geometry" />
        </mxCell>
        <mxCell id="ml4NnkUa15ox4P1RjirH-34" value="&lt;div&gt;x := Min(a, b);&lt;/div&gt;&lt;div&gt;finish := Max(a, b);&lt;/div&gt;&lt;div&gt;comparator := (a, b) =&amp;gt; a&amp;lt;b;&lt;/div&gt;" style="html=1;dashed=0;whiteSpace=wrap;" parent="1" vertex="1">
          <mxGeometry x="196" y="923" width="135" height="70" as="geometry" />
        </mxCell>
        <mxCell id="ml4NnkUa15ox4P1RjirH-40" style="edgeStyle=orthogonalEdgeStyle;rounded=0;orthogonalLoop=1;jettySize=auto;html=1;exitX=0.5;exitY=1;exitDx=0;exitDy=0;entryX=0.5;entryY=0;entryDx=0;entryDy=0;" parent="1" source="ml4NnkUa15ox4P1RjirH-51" target="ml4NnkUa15ox4P1RjirH-39" edge="1">
          <mxGeometry relative="1" as="geometry">
            <mxPoint x="101.5" y="1247" as="sourcePoint" />
          </mxGeometry>
        </mxCell>
        <mxCell id="ml4NnkUa15ox4P1RjirH-59" style="edgeStyle=orthogonalEdgeStyle;rounded=0;orthogonalLoop=1;jettySize=auto;html=1;exitX=0.5;exitY=1;exitDx=0;exitDy=0;entryX=0.5;entryY=0;entryDx=0;entryDy=0;" parent="1" source="ml4NnkUa15ox4P1RjirH-39" target="ml4NnkUa15ox4P1RjirH-46" edge="1">
          <mxGeometry relative="1" as="geometry" />
        </mxCell>
        <mxCell id="ml4NnkUa15ox4P1RjirH-39" value="MainWhile&lt;div&gt;comparator&amp;nbsp; func. returns false&lt;br&gt;&lt;/div&gt;" style="shape=loopLimit;whiteSpace=wrap;html=1;" parent="1" vertex="1">
          <mxGeometry x="51" y="1277" width="100" height="81" as="geometry" />
        </mxCell>
        <mxCell id="ml4NnkUa15ox4P1RjirH-43" value="" style="group" parent="1" vertex="1" connectable="0">
          <mxGeometry x="51" y="1647" width="100" height="50" as="geometry" />
        </mxCell>
        <mxCell id="ml4NnkUa15ox4P1RjirH-41" value="" style="shape=loopLimit;whiteSpace=wrap;html=1;size=20;rotation=-180;" parent="ml4NnkUa15ox4P1RjirH-43" vertex="1">
          <mxGeometry width="100" height="50" as="geometry" />
        </mxCell>
        <mxCell id="ml4NnkUa15ox4P1RjirH-42" value="&lt;span style=&quot;color: rgb(0, 0, 0); font-family: Helvetica; font-size: 12px; font-style: normal; font-variant-ligatures: normal; font-variant-caps: normal; font-weight: 400; letter-spacing: normal; orphans: 2; text-indent: 0px; text-transform: none; widows: 2; word-spacing: 0px; -webkit-text-stroke-width: 0px; white-space: normal; background-color: rgb(251, 251, 251); text-decoration-thickness: initial; text-decoration-style: initial; text-decoration-color: initial; float: none; display: inline !important;&quot;&gt;MainWhile&lt;/span&gt;" style="text;whiteSpace=wrap;html=1;align=center;verticalAlign=middle;" parent="ml4NnkUa15ox4P1RjirH-43" vertex="1">
          <mxGeometry y="6.25" width="100" height="37.5" as="geometry" />
        </mxCell>
        <mxCell id="ml4NnkUa15ox4P1RjirH-44" value="" style="group" parent="1" vertex="1" connectable="0">
          <mxGeometry x="51" y="1387" width="100" height="60" as="geometry" />
        </mxCell>
        <mxCell id="ml4NnkUa15ox4P1RjirH-45" value="" style="verticalLabelPosition=bottom;verticalAlign=top;html=1;shape=process;whiteSpace=wrap;rounded=1;size=0.14;arcSize=6;" parent="ml4NnkUa15ox4P1RjirH-44" vertex="1">
          <mxGeometry width="100" height="60" as="geometry" />
        </mxCell>
        <mxCell id="ml4NnkUa15ox4P1RjirH-46" value="calculate&amp;nbsp;&lt;span style=&quot;background-color: initial;&quot;&gt;ans&lt;/span&gt;&lt;div&gt;for A, write error if exists&lt;/div&gt;" style="text;strokeColor=none;align=center;fillColor=none;html=1;verticalAlign=middle;whiteSpace=wrap;rounded=0;" parent="ml4NnkUa15ox4P1RjirH-44" vertex="1">
          <mxGeometry x="15" width="70" height="60" as="geometry" />
        </mxCell>
        <mxCell id="ml4NnkUa15ox4P1RjirH-47" value="" style="group" parent="1" vertex="1" connectable="0">
          <mxGeometry x="51" y="1477" width="100" height="60" as="geometry" />
        </mxCell>
        <mxCell id="ml4NnkUa15ox4P1RjirH-48" value="" style="verticalLabelPosition=bottom;verticalAlign=top;html=1;shape=process;whiteSpace=wrap;rounded=1;size=0.14;arcSize=6;" parent="ml4NnkUa15ox4P1RjirH-47" vertex="1">
          <mxGeometry width="100" height="60" as="geometry" />
        </mxCell>
        <mxCell id="ml4NnkUa15ox4P1RjirH-49" value="log ans&lt;div&gt;or error if exists&lt;/div&gt;" style="text;strokeColor=none;align=center;fillColor=none;html=1;verticalAlign=middle;whiteSpace=wrap;rounded=0;" parent="ml4NnkUa15ox4P1RjirH-47" vertex="1">
          <mxGeometry x="15" width="70" height="60" as="geometry" />
        </mxCell>
        <mxCell id="ml4NnkUa15ox4P1RjirH-51" value="make first step&lt;div&gt;(x += h)&lt;/div&gt;" style="html=1;dashed=0;whiteSpace=wrap;" parent="1" vertex="1">
          <mxGeometry x="51" y="1187" width="100" height="50" as="geometry" />
        </mxCell>
        <mxCell id="ml4NnkUa15ox4P1RjirH-58" value="" style="edgeStyle=orthogonalEdgeStyle;rounded=0;orthogonalLoop=1;jettySize=auto;html=1;entryX=0.5;entryY=1;entryDx=0;entryDy=0;" parent="1" source="ml4NnkUa15ox4P1RjirH-53" target="ml4NnkUa15ox4P1RjirH-41" edge="1">
          <mxGeometry relative="1" as="geometry" />
        </mxCell>
        <mxCell id="ml4NnkUa15ox4P1RjirH-53" value="increase x&lt;div&gt;(x += h)&lt;/div&gt;" style="html=1;dashed=0;whiteSpace=wrap;" parent="1" vertex="1">
          <mxGeometry x="51" y="1567" width="100" height="50" as="geometry" />
        </mxCell>
        <mxCell id="ml4NnkUa15ox4P1RjirH-56" value="" style="edgeStyle=orthogonalEdgeStyle;rounded=0;orthogonalLoop=1;jettySize=auto;html=1;" parent="1" source="ml4NnkUa15ox4P1RjirH-46" target="ml4NnkUa15ox4P1RjirH-49" edge="1">
          <mxGeometry relative="1" as="geometry" />
        </mxCell>
        <mxCell id="ml4NnkUa15ox4P1RjirH-57" value="" style="edgeStyle=orthogonalEdgeStyle;rounded=0;orthogonalLoop=1;jettySize=auto;html=1;" parent="1" source="ml4NnkUa15ox4P1RjirH-49" target="ml4NnkUa15ox4P1RjirH-53" edge="1">
          <mxGeometry relative="1" as="geometry" />
        </mxCell>
        <mxCell id="ml4NnkUa15ox4P1RjirH-71" value="needed" style="edgeStyle=orthogonalEdgeStyle;rounded=0;orthogonalLoop=1;jettySize=auto;html=1;" parent="1" source="ml4NnkUa15ox4P1RjirH-62" target="ml4NnkUa15ox4P1RjirH-67" edge="1">
          <mxGeometry x="-0.0571" y="29" relative="1" as="geometry">
            <mxPoint as="offset" />
          </mxGeometry>
        </mxCell>
        <mxCell id="ml4NnkUa15ox4P1RjirH-78" value="not needed" style="edgeStyle=orthogonalEdgeStyle;rounded=0;orthogonalLoop=1;jettySize=auto;html=1;exitX=1;exitY=0.5;exitDx=0;exitDy=0;" parent="1" source="ml4NnkUa15ox4P1RjirH-62" edge="1">
          <mxGeometry x="0.0076" y="34" relative="1" as="geometry">
            <mxPoint x="100" y="2117" as="targetPoint" />
            <mxPoint x="145" y="1817" as="sourcePoint" />
            <Array as="points">
              <mxPoint x="145" y="1817" />
              <mxPoint x="236" y="1818" />
              <mxPoint x="236" y="2117" />
            </Array>
            <mxPoint as="offset" />
          </mxGeometry>
        </mxCell>
        <mxCell id="ml4NnkUa15ox4P1RjirH-62" value="check if&lt;div&gt;needed&lt;/div&gt;&lt;div&gt;ans for b&lt;/div&gt;" style="rhombus;whiteSpace=wrap;html=1;" parent="1" vertex="1">
          <mxGeometry x="61" y="1777" width="80" height="80" as="geometry" />
        </mxCell>
        <mxCell id="ml4NnkUa15ox4P1RjirH-60" style="edgeStyle=orthogonalEdgeStyle;rounded=0;orthogonalLoop=1;jettySize=auto;html=1;exitX=0.5;exitY=0;exitDx=0;exitDy=0;entryX=0.5;entryY=0;entryDx=0;entryDy=0;" parent="1" source="ml4NnkUa15ox4P1RjirH-41" target="ml4NnkUa15ox4P1RjirH-62" edge="1">
          <mxGeometry relative="1" as="geometry">
            <mxPoint x="101.33333333333348" y="1767" as="targetPoint" />
          </mxGeometry>
        </mxCell>
        <mxCell id="ml4NnkUa15ox4P1RjirH-65" value="" style="group" parent="1" vertex="1" connectable="0">
          <mxGeometry x="51" y="1927" width="100" height="60" as="geometry" />
        </mxCell>
        <mxCell id="ml4NnkUa15ox4P1RjirH-66" value="" style="verticalLabelPosition=bottom;verticalAlign=top;html=1;shape=process;whiteSpace=wrap;rounded=1;size=0.14;arcSize=6;" parent="ml4NnkUa15ox4P1RjirH-65" vertex="1">
          <mxGeometry width="100" height="60" as="geometry" />
        </mxCell>
        <mxCell id="ml4NnkUa15ox4P1RjirH-67" value="calculate&amp;nbsp;&lt;span style=&quot;background-color: initial;&quot;&gt;ans&lt;/span&gt;&lt;div&gt;for A, write error if exists&lt;/div&gt;" style="text;strokeColor=none;align=center;fillColor=none;html=1;verticalAlign=middle;whiteSpace=wrap;rounded=0;" parent="ml4NnkUa15ox4P1RjirH-65" vertex="1">
          <mxGeometry x="15" width="70" height="60" as="geometry" />
        </mxCell>
        <mxCell id="ml4NnkUa15ox4P1RjirH-68" value="" style="group" parent="1" vertex="1" connectable="0">
          <mxGeometry x="51" y="2017" width="100" height="60" as="geometry" />
        </mxCell>
        <mxCell id="ml4NnkUa15ox4P1RjirH-69" value="" style="verticalLabelPosition=bottom;verticalAlign=top;html=1;shape=process;whiteSpace=wrap;rounded=1;size=0.14;arcSize=6;" parent="ml4NnkUa15ox4P1RjirH-68" vertex="1">
          <mxGeometry width="100" height="60" as="geometry" />
        </mxCell>
        <mxCell id="ml4NnkUa15ox4P1RjirH-70" value="log ans&lt;div&gt;or error if exists&lt;/div&gt;" style="text;strokeColor=none;align=center;fillColor=none;html=1;verticalAlign=middle;whiteSpace=wrap;rounded=0;" parent="ml4NnkUa15ox4P1RjirH-68" vertex="1">
          <mxGeometry x="15" width="70" height="60" as="geometry" />
        </mxCell>
        <mxCell id="ml4NnkUa15ox4P1RjirH-72" value="" style="edgeStyle=orthogonalEdgeStyle;rounded=0;orthogonalLoop=1;jettySize=auto;html=1;" parent="1" source="ml4NnkUa15ox4P1RjirH-67" target="ml4NnkUa15ox4P1RjirH-70" edge="1">
          <mxGeometry relative="1" as="geometry" />
        </mxCell>
        <mxCell id="ml4NnkUa15ox4P1RjirH-73" value="end main" style="html=1;dashed=0;whiteSpace=wrap;shape=mxgraph.dfd.start" parent="1" vertex="1">
          <mxGeometry x="61" y="2157" width="80" height="30" as="geometry" />
        </mxCell>
        <mxCell id="ml4NnkUa15ox4P1RjirH-74" value="" style="edgeStyle=orthogonalEdgeStyle;rounded=0;orthogonalLoop=1;jettySize=auto;html=1;" parent="1" source="ml4NnkUa15ox4P1RjirH-70" target="ml4NnkUa15ox4P1RjirH-73" edge="1">
          <mxGeometry relative="1" as="geometry" />
        </mxCell>
        <mxCell id="ml4NnkUa15ox4P1RjirH-81" style="edgeStyle=orthogonalEdgeStyle;rounded=0;orthogonalLoop=1;jettySize=auto;html=1;exitX=0.5;exitY=0.5;exitDx=0;exitDy=15;exitPerimeter=0;entryX=0.5;entryY=0;entryDx=0;entryDy=0;" parent="1" source="ml4NnkUa15ox4P1RjirH-79" target="ml4NnkUa15ox4P1RjirH-80" edge="1">
          <mxGeometry relative="1" as="geometry" />
        </mxCell>
        <mxCell id="ml4NnkUa15ox4P1RjirH-79" value="start readTo" style="html=1;dashed=0;whiteSpace=wrap;shape=mxgraph.dfd.start" parent="1" vertex="1">
          <mxGeometry x="471" y="10" width="80" height="30" as="geometry" />
        </mxCell>
        <mxCell id="ml4NnkUa15ox4P1RjirH-87" style="edgeStyle=orthogonalEdgeStyle;rounded=0;orthogonalLoop=1;jettySize=auto;html=1;exitX=0.5;exitY=1;exitDx=0;exitDy=0;entryX=0.5;entryY=0;entryDx=0;entryDy=0;" parent="1" source="ml4NnkUa15ox4P1RjirH-80" target="ml4NnkUa15ox4P1RjirH-84" edge="1">
          <mxGeometry relative="1" as="geometry" />
        </mxCell>
        <mxCell id="ml4NnkUa15ox4P1RjirH-80" value="params&amp;nbsp;&lt;span style=&quot;background-color: initial;&quot;&gt;readTo (var)&lt;/span&gt;&lt;div&gt;gentleInput (optional)&lt;br&gt;&lt;/div&gt;" style="shape=parallelogram;perimeter=parallelogramPerimeter;whiteSpace=wrap;html=1;dashed=0;" parent="1" vertex="1">
          <mxGeometry x="436" y="70" width="150" height="70" as="geometry" />
        </mxCell>
        <mxCell id="ml4NnkUa15ox4P1RjirH-89" style="edgeStyle=orthogonalEdgeStyle;rounded=0;orthogonalLoop=1;jettySize=auto;html=1;exitX=0.5;exitY=1;exitDx=0;exitDy=0;entryX=0.5;entryY=0;entryDx=0;entryDy=0;" parent="1" source="ml4NnkUa15ox4P1RjirH-84" target="ml4NnkUa15ox4P1RjirH-88" edge="1">
          <mxGeometry relative="1" as="geometry" />
        </mxCell>
        <mxCell id="ml4NnkUa15ox4P1RjirH-84" value="&lt;p class=&quot;western&quot; style=&quot;text-indent: 0in; margin-top: 0.25in&quot;&gt;&lt;span style=&quot;&quot;&gt;&lt;font style=&quot;font-size: 12px;&quot;&gt;RepeatedReadToWhile&lt;/font&gt;&lt;/span&gt;&lt;/p&gt;" style="shape=loopLimit;whiteSpace=wrap;html=1;align=center;verticalAlign=middle;horizontal=1;" parent="1" vertex="1">
          <mxGeometry x="446" y="170" width="130" height="60" as="geometry" />
        </mxCell>
        <mxCell id="ml4NnkUa15ox4P1RjirH-93" style="edgeStyle=orthogonalEdgeStyle;rounded=0;orthogonalLoop=1;jettySize=auto;html=1;exitX=0.5;exitY=1;exitDx=0;exitDy=0;entryX=0.5;entryY=0;entryDx=0;entryDy=0;" parent="1" source="ml4NnkUa15ox4P1RjirH-88" target="ml4NnkUa15ox4P1RjirH-92" edge="1">
          <mxGeometry relative="1" as="geometry" />
        </mxCell>
        <mxCell id="ml4NnkUa15ox4P1RjirH-88" value="log&lt;div&gt;gentleInput&lt;/div&gt;" style="shape=parallelogram;perimeter=parallelogramPerimeter;whiteSpace=wrap;html=1;dashed=0;" parent="1" vertex="1">
          <mxGeometry x="461" y="262" width="100" height="50" as="geometry" />
        </mxCell>
        <mxCell id="ml4NnkUa15ox4P1RjirH-95" value="get error" style="edgeStyle=orthogonalEdgeStyle;rounded=0;orthogonalLoop=1;jettySize=auto;html=1;exitX=1;exitY=0.5;exitDx=0;exitDy=0;entryX=0.5;entryY=0;entryDx=0;entryDy=0;" parent="1" source="ml4NnkUa15ox4P1RjirH-92" target="ml4NnkUa15ox4P1RjirH-97" edge="1">
          <mxGeometry x="-0.0111" y="12" relative="1" as="geometry">
            <mxPoint x="621" y="452" as="targetPoint" />
            <mxPoint as="offset" />
          </mxGeometry>
        </mxCell>
        <mxCell id="ml4NnkUa15ox4P1RjirH-121" value="nothing unexpected" style="edgeStyle=orthogonalEdgeStyle;rounded=0;orthogonalLoop=1;jettySize=auto;html=1;" parent="1" source="ml4NnkUa15ox4P1RjirH-92" target="ml4NnkUa15ox4P1RjirH-120" edge="1">
          <mxGeometry x="-0.1364" y="-51" relative="1" as="geometry">
            <mxPoint as="offset" />
          </mxGeometry>
        </mxCell>
        <mxCell id="ml4NnkUa15ox4P1RjirH-92" value="try read to&lt;div&gt;value&lt;/div&gt;" style="rhombus;whiteSpace=wrap;html=1;" parent="1" vertex="1">
          <mxGeometry x="471" y="342" width="80" height="80" as="geometry" />
        </mxCell>
        <mxCell id="ml4NnkUa15ox4P1RjirH-100" style="edgeStyle=orthogonalEdgeStyle;rounded=0;orthogonalLoop=1;jettySize=auto;html=1;exitX=0.5;exitY=1;exitDx=0;exitDy=0;entryX=0.5;entryY=0;entryDx=0;entryDy=0;" parent="1" source="ml4NnkUa15ox4P1RjirH-97" target="ml4NnkUa15ox4P1RjirH-99" edge="1">
          <mxGeometry relative="1" as="geometry" />
        </mxCell>
        <mxCell id="ml4NnkUa15ox4P1RjirH-97" value="write error&lt;div&gt;to variable&lt;/div&gt;" style="whiteSpace=wrap;html=1;" parent="1" vertex="1">
          <mxGeometry x="614" y="439" width="120" height="60" as="geometry" />
        </mxCell>
        <mxCell id="ml4NnkUa15ox4P1RjirH-118" style="edgeStyle=orthogonalEdgeStyle;rounded=0;orthogonalLoop=1;jettySize=auto;html=1;exitX=0.5;exitY=1;exitDx=0;exitDy=0;" parent="1" source="ml4NnkUa15ox4P1RjirH-99" edge="1">
          <mxGeometry relative="1" as="geometry">
            <mxPoint x="511" y="612" as="targetPoint" />
            <Array as="points">
              <mxPoint x="674" y="612" />
            </Array>
          </mxGeometry>
        </mxCell>
        <mxCell id="ml4NnkUa15ox4P1RjirH-99" value="log&lt;div&gt;error&lt;/div&gt;" style="shape=parallelogram;perimeter=parallelogramPerimeter;whiteSpace=wrap;html=1;dashed=0;" parent="1" vertex="1">
          <mxGeometry x="624" y="529" width="100" height="50" as="geometry" />
        </mxCell>
        <mxCell id="ml4NnkUa15ox4P1RjirH-115" value="" style="group" parent="1" vertex="1" connectable="0">
          <mxGeometry x="436" y="647" width="149" height="50" as="geometry" />
        </mxCell>
        <mxCell id="ml4NnkUa15ox4P1RjirH-116" value="" style="shape=loopLimit;whiteSpace=wrap;html=1;size=20;rotation=-180;" parent="ml4NnkUa15ox4P1RjirH-115" vertex="1">
          <mxGeometry width="149" height="50" as="geometry" />
        </mxCell>
        <mxCell id="ml4NnkUa15ox4P1RjirH-117" value="&lt;div&gt;error is empty&lt;br&gt;&lt;/div&gt;RepeatedReadToWhile" style="text;whiteSpace=wrap;html=1;align=center;verticalAlign=middle;" parent="ml4NnkUa15ox4P1RjirH-115" vertex="1">
          <mxGeometry y="6.25" width="149" height="37.5" as="geometry" />
        </mxCell>
        <mxCell id="ml4NnkUa15ox4P1RjirH-122" value="" style="edgeStyle=orthogonalEdgeStyle;rounded=0;orthogonalLoop=1;jettySize=auto;html=1;" parent="1" source="ml4NnkUa15ox4P1RjirH-120" edge="1">
          <mxGeometry relative="1" as="geometry">
            <mxPoint x="510" y="650" as="targetPoint" />
          </mxGeometry>
        </mxCell>
        <mxCell id="ml4NnkUa15ox4P1RjirH-120" value="write parsed value&lt;div&gt;to passed reference&lt;/div&gt;" style="whiteSpace=wrap;html=1;" parent="1" vertex="1">
          <mxGeometry x="451" y="510" width="120" height="60" as="geometry" />
        </mxCell>
        <mxCell id="ml4NnkUa15ox4P1RjirH-123" value="end readTo" style="html=1;dashed=0;whiteSpace=wrap;shape=mxgraph.dfd.start" parent="1" vertex="1">
          <mxGeometry x="471" y="733.5" width="80" height="30" as="geometry" />
        </mxCell>
        <mxCell id="ml4NnkUa15ox4P1RjirH-126" value="" style="edgeStyle=orthogonalEdgeStyle;rounded=0;orthogonalLoop=1;jettySize=auto;html=1;" parent="1" source="ml4NnkUa15ox4P1RjirH-116" target="ml4NnkUa15ox4P1RjirH-123" edge="1">
          <mxGeometry relative="1" as="geometry" />
        </mxCell>
        <mxCell id="9SB0VbaatCXMWt_Crm9O-1" style="edgeStyle=orthogonalEdgeStyle;rounded=0;orthogonalLoop=1;jettySize=auto;html=1;exitX=0.5;exitY=0.5;exitDx=0;exitDy=15;exitPerimeter=0;entryX=0.5;entryY=0;entryDx=0;entryDy=0;" parent="1" source="9SB0VbaatCXMWt_Crm9O-2" target="9SB0VbaatCXMWt_Crm9O-6" edge="1">
          <mxGeometry relative="1" as="geometry" />
        </mxCell>
        <mxCell id="9SB0VbaatCXMWt_Crm9O-2" value="start Calculate" style="html=1;dashed=0;whiteSpace=wrap;shape=mxgraph.dfd.start" parent="1" vertex="1">
          <mxGeometry x="658" y="711" width="100" height="30" as="geometry" />
        </mxCell>
        <mxCell id="9SB0VbaatCXMWt_Crm9O-3" style="edgeStyle=orthogonalEdgeStyle;rounded=0;orthogonalLoop=1;jettySize=auto;html=1;entryX=0.5;entryY=0;entryDx=0;entryDy=0;exitX=0.5;exitY=1;exitDx=0;exitDy=0;" parent="1" source="ytkeiAz3e-5avgEN_o9H-10" target="9SB0VbaatCXMWt_Crm9O-12" edge="1">
          <mxGeometry relative="1" as="geometry">
            <mxPoint x="508" y="1120" as="sourcePoint" />
          </mxGeometry>
        </mxCell>
        <mxCell id="9SB0VbaatCXMWt_Crm9O-4" value="x == 0" style="rhombus;whiteSpace=wrap;html=1;" parent="1" vertex="1">
          <mxGeometry x="668" y="891" width="80" height="80" as="geometry" />
        </mxCell>
        <mxCell id="9SB0VbaatCXMWt_Crm9O-5" style="edgeStyle=orthogonalEdgeStyle;rounded=0;orthogonalLoop=1;jettySize=auto;html=1;exitX=0.5;exitY=1;exitDx=0;exitDy=0;entryX=0.5;entryY=0;entryDx=0;entryDy=0;" parent="1" source="9SB0VbaatCXMWt_Crm9O-6" target="9SB0VbaatCXMWt_Crm9O-4" edge="1">
          <mxGeometry relative="1" as="geometry" />
        </mxCell>
        <mxCell id="9SB0VbaatCXMWt_Crm9O-6" value="argument&lt;div&gt;x, error (var)&lt;/div&gt;" style="shape=parallelogram;perimeter=parallelogramPerimeter;whiteSpace=wrap;html=1;fixedSize=1;" parent="1" vertex="1">
          <mxGeometry x="648" y="781" width="120" height="60" as="geometry" />
        </mxCell>
        <mxCell id="9SB0VbaatCXMWt_Crm9O-11" style="edgeStyle=orthogonalEdgeStyle;rounded=0;orthogonalLoop=1;jettySize=auto;html=1;exitX=0.5;exitY=1;exitDx=0;exitDy=0;entryX=0.5;entryY=0;entryDx=0;entryDy=0;" parent="1" source="9SB0VbaatCXMWt_Crm9O-12" target="9SB0VbaatCXMWt_Crm9O-14" edge="1">
          <mxGeometry relative="1" as="geometry" />
        </mxCell>
        <mxCell id="9SB0VbaatCXMWt_Crm9O-12" value="calculate&lt;div&gt;numerator&lt;br&gt;&lt;/div&gt;" style="rounded=0;whiteSpace=wrap;html=1;" parent="1" vertex="1">
          <mxGeometry x="448" y="1226" width="120" height="60" as="geometry" />
        </mxCell>
        <mxCell id="9SB0VbaatCXMWt_Crm9O-13" style="edgeStyle=orthogonalEdgeStyle;rounded=0;orthogonalLoop=1;jettySize=auto;html=1;exitX=0.5;exitY=1;exitDx=0;exitDy=0;entryX=0.5;entryY=0;entryDx=0;entryDy=0;" parent="1" source="9SB0VbaatCXMWt_Crm9O-14" edge="1">
          <mxGeometry relative="1" as="geometry">
            <mxPoint x="508" y="1446" as="targetPoint" />
          </mxGeometry>
        </mxCell>
        <mxCell id="9SB0VbaatCXMWt_Crm9O-14" value="calculate&lt;div&gt;denominator&lt;br&gt;&lt;/div&gt;" style="rounded=0;whiteSpace=wrap;html=1;" parent="1" vertex="1">
          <mxGeometry x="448" y="1336" width="120" height="60" as="geometry" />
        </mxCell>
        <mxCell id="9SB0VbaatCXMWt_Crm9O-16" style="edgeStyle=orthogonalEdgeStyle;rounded=0;orthogonalLoop=1;jettySize=auto;html=1;exitX=0.5;exitY=0.5;exitDx=0;exitDy=15;exitPerimeter=0;entryX=0.5;entryY=0;entryDx=0;entryDy=0;" parent="1" source="9SB0VbaatCXMWt_Crm9O-17" target="9SB0VbaatCXMWt_Crm9O-19" edge="1">
          <mxGeometry relative="1" as="geometry" />
        </mxCell>
        <mxCell id="9SB0VbaatCXMWt_Crm9O-17" value="start LogResult" style="html=1;dashed=0;whiteSpace=wrap;shape=mxgraph.dfd.start" parent="1" vertex="1">
          <mxGeometry x="505" y="1666" width="100" height="30" as="geometry" />
        </mxCell>
        <mxCell id="9SB0VbaatCXMWt_Crm9O-95" value="" style="edgeStyle=orthogonalEdgeStyle;rounded=0;orthogonalLoop=1;jettySize=auto;html=1;" parent="1" source="9SB0VbaatCXMWt_Crm9O-19" target="9SB0VbaatCXMWt_Crm9O-94" edge="1">
          <mxGeometry relative="1" as="geometry" />
        </mxCell>
        <mxCell id="9SB0VbaatCXMWt_Crm9O-19" value="arguments&lt;div&gt;x, y,&amp;nbsp;&lt;span style=&quot;background-color: initial;&quot;&gt;error&lt;/span&gt;&lt;/div&gt;" style="shape=parallelogram;perimeter=parallelogramPerimeter;whiteSpace=wrap;html=1;fixedSize=1;" parent="1" vertex="1">
          <mxGeometry x="495" y="1736" width="120" height="60" as="geometry" />
        </mxCell>
        <mxCell id="9SB0VbaatCXMWt_Crm9O-93" value="" style="edgeStyle=orthogonalEdgeStyle;rounded=0;orthogonalLoop=1;jettySize=auto;html=1;" parent="1" source="9SB0VbaatCXMWt_Crm9O-22" target="9SB0VbaatCXMWt_Crm9O-85" edge="1">
          <mxGeometry relative="1" as="geometry" />
        </mxCell>
        <mxCell id="9SB0VbaatCXMWt_Crm9O-22" value="&lt;div&gt;log result as&lt;/div&gt;&lt;div&gt;template string&lt;/div&gt;" style="shape=parallelogram;perimeter=parallelogramPerimeter;whiteSpace=wrap;html=1;fixedSize=1;" parent="1" vertex="1">
          <mxGeometry x="495" y="1956" width="120" height="60" as="geometry" />
        </mxCell>
        <mxCell id="9SB0VbaatCXMWt_Crm9O-83" value="end Calculate" style="html=1;dashed=0;whiteSpace=wrap;shape=mxgraph.dfd.start" parent="1" vertex="1">
          <mxGeometry x="460" y="1620" width="92" height="30" as="geometry" />
        </mxCell>
        <mxCell id="9SB0VbaatCXMWt_Crm9O-85" value="end LogResult" style="html=1;dashed=0;whiteSpace=wrap;shape=mxgraph.dfd.start" parent="1" vertex="1">
          <mxGeometry x="511" y="2092.5" width="88" height="30" as="geometry" />
        </mxCell>
        <mxCell id="9SB0VbaatCXMWt_Crm9O-91" value="&lt;div&gt;write MaxInt to result&lt;/div&gt;&lt;div&gt;write error message to referense&lt;/div&gt;" style="rounded=0;whiteSpace=wrap;html=1;" parent="1" vertex="1">
          <mxGeometry x="268" y="1215" width="120" height="60" as="geometry" />
        </mxCell>
        <mxCell id="9SB0VbaatCXMWt_Crm9O-92" style="edgeStyle=orthogonalEdgeStyle;rounded=0;orthogonalLoop=1;jettySize=auto;html=1;exitX=0.5;exitY=1;exitDx=0;exitDy=0;" parent="1" source="9SB0VbaatCXMWt_Crm9O-91" edge="1">
          <mxGeometry relative="1" as="geometry">
            <mxPoint x="508" y="1520" as="targetPoint" />
            <Array as="points">
              <mxPoint x="328" y="1520" />
              <mxPoint x="508" y="1520" />
            </Array>
          </mxGeometry>
        </mxCell>
        <mxCell id="9SB0VbaatCXMWt_Crm9O-97" value="" style="edgeStyle=orthogonalEdgeStyle;rounded=0;orthogonalLoop=1;jettySize=auto;html=1;" parent="1" source="9SB0VbaatCXMWt_Crm9O-94" target="9SB0VbaatCXMWt_Crm9O-22" edge="1">
          <mxGeometry relative="1" as="geometry" />
        </mxCell>
        <mxCell id="9SB0VbaatCXMWt_Crm9O-98" value="false" style="edgeLabel;html=1;align=center;verticalAlign=middle;resizable=0;points=[];" parent="9SB0VbaatCXMWt_Crm9O-97" vertex="1" connectable="0">
          <mxGeometry x="-0.0739" relative="1" as="geometry">
            <mxPoint x="-18" y="-2" as="offset" />
          </mxGeometry>
        </mxCell>
        <mxCell id="9SB0VbaatCXMWt_Crm9O-100" value="true" style="edgeStyle=orthogonalEdgeStyle;rounded=0;orthogonalLoop=1;jettySize=auto;html=1;exitX=1;exitY=0.5;exitDx=0;exitDy=0;entryX=0.5;entryY=0;entryDx=0;entryDy=0;" parent="1" source="9SB0VbaatCXMWt_Crm9O-94" target="9SB0VbaatCXMWt_Crm9O-99" edge="1">
          <mxGeometry x="-0.2992" y="16" relative="1" as="geometry">
            <mxPoint as="offset" />
          </mxGeometry>
        </mxCell>
        <mxCell id="9SB0VbaatCXMWt_Crm9O-94" value="error is not&lt;div&gt;empty&lt;/div&gt;" style="rhombus;whiteSpace=wrap;html=1;" parent="1" vertex="1">
          <mxGeometry x="515" y="1826" width="80" height="80" as="geometry" />
        </mxCell>
        <mxCell id="9SB0VbaatCXMWt_Crm9O-101" style="edgeStyle=orthogonalEdgeStyle;rounded=0;orthogonalLoop=1;jettySize=auto;html=1;exitX=0.5;exitY=1;exitDx=0;exitDy=0;" parent="1" source="9SB0VbaatCXMWt_Crm9O-99" edge="1">
          <mxGeometry relative="1" as="geometry">
            <mxPoint x="557" y="2056" as="targetPoint" />
            <Array as="points">
              <mxPoint x="702" y="2056" />
              <mxPoint x="557" y="2056" />
            </Array>
          </mxGeometry>
        </mxCell>
        <mxCell id="9SB0VbaatCXMWt_Crm9O-99" value="&lt;div&gt;log error as&lt;/div&gt;&lt;div&gt;template string&lt;/div&gt;" style="shape=parallelogram;perimeter=parallelogramPerimeter;whiteSpace=wrap;html=1;fixedSize=1;" parent="1" vertex="1">
          <mxGeometry x="642" y="1944.5" width="120" height="60" as="geometry" />
        </mxCell>
        <mxCell id="9SB0VbaatCXMWt_Crm9O-131" style="edgeStyle=orthogonalEdgeStyle;rounded=0;orthogonalLoop=1;jettySize=auto;html=1;exitX=0.5;exitY=0.5;exitDx=0;exitDy=15;exitPerimeter=0;entryX=0.5;entryY=0;entryDx=0;entryDy=0;" parent="1" source="9SB0VbaatCXMWt_Crm9O-132" target="9SB0VbaatCXMWt_Crm9O-134" edge="1">
          <mxGeometry relative="1" as="geometry" />
        </mxCell>
        <mxCell id="9SB0VbaatCXMWt_Crm9O-132" value="start CubicRoot" style="html=1;dashed=0;whiteSpace=wrap;shape=mxgraph.dfd.start" parent="1" vertex="1">
          <mxGeometry x="61" y="2270" width="100" height="30" as="geometry" />
        </mxCell>
        <mxCell id="9SB0VbaatCXMWt_Crm9O-133" style="edgeStyle=orthogonalEdgeStyle;rounded=0;orthogonalLoop=1;jettySize=auto;html=1;exitX=0.5;exitY=1;exitDx=0;exitDy=0;" parent="1" source="9SB0VbaatCXMWt_Crm9O-134" edge="1">
          <mxGeometry relative="1" as="geometry">
            <mxPoint x="111" y="2460" as="targetPoint" />
          </mxGeometry>
        </mxCell>
        <mxCell id="9SB0VbaatCXMWt_Crm9O-134" value="argument&lt;div&gt;Value&lt;/div&gt;" style="shape=parallelogram;perimeter=parallelogramPerimeter;whiteSpace=wrap;html=1;fixedSize=1;" parent="1" vertex="1">
          <mxGeometry x="51" y="2340" width="120" height="60" as="geometry" />
        </mxCell>
        <mxCell id="9SB0VbaatCXMWt_Crm9O-135" style="edgeStyle=orthogonalEdgeStyle;rounded=0;orthogonalLoop=1;jettySize=auto;html=1;exitX=0.5;exitY=1;exitDx=0;exitDy=0;entryX=0.5;entryY=0;entryDx=0;entryDy=0;" parent="1" target="9SB0VbaatCXMWt_Crm9O-136" edge="1">
          <mxGeometry relative="1" as="geometry">
            <mxPoint x="111" y="2520" as="sourcePoint" />
          </mxGeometry>
        </mxCell>
        <mxCell id="9SB0VbaatCXMWt_Crm9O-136" value="return result" style="shape=parallelogram;perimeter=parallelogramPerimeter;whiteSpace=wrap;html=1;fixedSize=1;" parent="1" vertex="1">
          <mxGeometry x="51" y="2580" width="120" height="60" as="geometry" />
        </mxCell>
        <mxCell id="9SB0VbaatCXMWt_Crm9O-137" value="calculate&lt;div&gt;result&lt;/div&gt;" style="rounded=0;whiteSpace=wrap;html=1;" parent="1" vertex="1">
          <mxGeometry x="51" y="2460" width="120" height="60" as="geometry" />
        </mxCell>
        <mxCell id="9SB0VbaatCXMWt_Crm9O-138" style="edgeStyle=orthogonalEdgeStyle;rounded=0;orthogonalLoop=1;jettySize=auto;html=1;exitX=0.5;exitY=0.5;exitDx=0;exitDy=15;exitPerimeter=0;" parent="1" source="9SB0VbaatCXMWt_Crm9O-139" target="9SB0VbaatCXMWt_Crm9O-143" edge="1">
          <mxGeometry relative="1" as="geometry" />
        </mxCell>
        <mxCell id="9SB0VbaatCXMWt_Crm9O-139" value="start Min" style="html=1;dashed=0;whiteSpace=wrap;shape=mxgraph.dfd.start" parent="1" vertex="1">
          <mxGeometry x="535" y="2672" width="100" height="30" as="geometry" />
        </mxCell>
        <mxCell id="9SB0VbaatCXMWt_Crm9O-140" value="No" style="edgeStyle=orthogonalEdgeStyle;rounded=0;orthogonalLoop=1;jettySize=auto;html=1;exitX=1;exitY=0.5;exitDx=0;exitDy=0;exitPerimeter=0;" parent="1" source="9SB0VbaatCXMWt_Crm9O-142" edge="1">
          <mxGeometry x="-0.5894" y="10" relative="1" as="geometry">
            <mxPoint x="720" y="3030" as="targetPoint" />
            <mxPoint as="offset" />
          </mxGeometry>
        </mxCell>
        <mxCell id="9SB0VbaatCXMWt_Crm9O-141" value="Yes" style="edgeStyle=orthogonalEdgeStyle;rounded=0;orthogonalLoop=1;jettySize=auto;html=1;" parent="1" source="9SB0VbaatCXMWt_Crm9O-142" edge="1">
          <mxGeometry x="0.2" y="15" relative="1" as="geometry">
            <mxPoint x="585" y="3032" as="targetPoint" />
            <mxPoint as="offset" />
          </mxGeometry>
        </mxCell>
        <mxCell id="9SB0VbaatCXMWt_Crm9O-142" value="a &amp;gt;= b" style="strokeWidth=2;html=1;shape=mxgraph.flowchart.decision;whiteSpace=wrap;" parent="1" vertex="1">
          <mxGeometry x="535" y="2882" width="100" height="100" as="geometry" />
        </mxCell>
        <mxCell id="9SB0VbaatCXMWt_Crm9O-143" value="arguments&lt;div&gt;a, b&lt;/div&gt;" style="shape=parallelogram;perimeter=parallelogramPerimeter;whiteSpace=wrap;html=1;fixedSize=1;" parent="1" vertex="1">
          <mxGeometry x="525" y="2762" width="120" height="60" as="geometry" />
        </mxCell>
        <mxCell id="9SB0VbaatCXMWt_Crm9O-144" style="edgeStyle=orthogonalEdgeStyle;rounded=0;orthogonalLoop=1;jettySize=auto;html=1;exitX=0.5;exitY=1;exitDx=0;exitDy=0;entryX=0.5;entryY=0;entryDx=0;entryDy=0;entryPerimeter=0;" parent="1" source="9SB0VbaatCXMWt_Crm9O-143" target="9SB0VbaatCXMWt_Crm9O-142" edge="1">
          <mxGeometry relative="1" as="geometry" />
        </mxCell>
        <mxCell id="9SB0VbaatCXMWt_Crm9O-145" value="" style="edgeStyle=orthogonalEdgeStyle;rounded=0;orthogonalLoop=1;jettySize=auto;html=1;" parent="1" source="Jw9C-Zn7AZ0Pdl78Gq-7-12" target="9SB0VbaatCXMWt_Crm9O-157" edge="1">
          <mxGeometry relative="1" as="geometry" />
        </mxCell>
        <mxCell id="9SB0VbaatCXMWt_Crm9O-147" style="edgeStyle=orthogonalEdgeStyle;rounded=0;orthogonalLoop=1;jettySize=auto;html=1;exitX=0.5;exitY=0.5;exitDx=0;exitDy=15;exitPerimeter=0;" parent="1" source="9SB0VbaatCXMWt_Crm9O-148" target="9SB0VbaatCXMWt_Crm9O-149" edge="1">
          <mxGeometry relative="1" as="geometry" />
        </mxCell>
        <mxCell id="9SB0VbaatCXMWt_Crm9O-148" value="start CompGreater" style="html=1;dashed=0;whiteSpace=wrap;shape=mxgraph.dfd.start" parent="1" vertex="1">
          <mxGeometry x="301" y="2270" width="120" height="30" as="geometry" />
        </mxCell>
        <mxCell id="9SB0VbaatCXMWt_Crm9O-149" value="arguments&lt;div&gt;a, b&lt;/div&gt;" style="shape=parallelogram;perimeter=parallelogramPerimeter;whiteSpace=wrap;html=1;fixedSize=1;" parent="1" vertex="1">
          <mxGeometry x="301" y="2360" width="120" height="60" as="geometry" />
        </mxCell>
        <mxCell id="9SB0VbaatCXMWt_Crm9O-150" style="edgeStyle=orthogonalEdgeStyle;rounded=0;orthogonalLoop=1;jettySize=auto;html=1;exitX=0.5;exitY=1;exitDx=0;exitDy=0;" parent="1" source="9SB0VbaatCXMWt_Crm9O-149" target="9SB0VbaatCXMWt_Crm9O-151" edge="1">
          <mxGeometry relative="1" as="geometry">
            <mxPoint x="361" y="2480" as="targetPoint" />
          </mxGeometry>
        </mxCell>
        <mxCell id="9SB0VbaatCXMWt_Crm9O-151" value="return a &amp;gt; b" style="shape=parallelogram;perimeter=parallelogramPerimeter;whiteSpace=wrap;html=1;fixedSize=1;" parent="1" vertex="1">
          <mxGeometry x="301" y="2480" width="120" height="60" as="geometry" />
        </mxCell>
        <mxCell id="9SB0VbaatCXMWt_Crm9O-152" style="edgeStyle=orthogonalEdgeStyle;rounded=0;orthogonalLoop=1;jettySize=auto;html=1;exitX=0.5;exitY=0.5;exitDx=0;exitDy=15;exitPerimeter=0;" parent="1" source="9SB0VbaatCXMWt_Crm9O-153" target="9SB0VbaatCXMWt_Crm9O-154" edge="1">
          <mxGeometry relative="1" as="geometry" />
        </mxCell>
        <mxCell id="9SB0VbaatCXMWt_Crm9O-153" value="start CompLower" style="html=1;dashed=0;whiteSpace=wrap;shape=mxgraph.dfd.start" parent="1" vertex="1">
          <mxGeometry x="568" y="2270" width="120" height="30" as="geometry" />
        </mxCell>
        <mxCell id="9SB0VbaatCXMWt_Crm9O-154" value="arguments&lt;div&gt;a, b&lt;/div&gt;" style="shape=parallelogram;perimeter=parallelogramPerimeter;whiteSpace=wrap;html=1;fixedSize=1;" parent="1" vertex="1">
          <mxGeometry x="568" y="2360" width="120" height="60" as="geometry" />
        </mxCell>
        <mxCell id="9SB0VbaatCXMWt_Crm9O-155" style="edgeStyle=orthogonalEdgeStyle;rounded=0;orthogonalLoop=1;jettySize=auto;html=1;exitX=0.5;exitY=1;exitDx=0;exitDy=0;" parent="1" source="9SB0VbaatCXMWt_Crm9O-154" target="9SB0VbaatCXMWt_Crm9O-156" edge="1">
          <mxGeometry relative="1" as="geometry">
            <mxPoint x="628" y="2480" as="targetPoint" />
          </mxGeometry>
        </mxCell>
        <mxCell id="9SB0VbaatCXMWt_Crm9O-156" value="return a &amp;lt; b" style="shape=parallelogram;perimeter=parallelogramPerimeter;whiteSpace=wrap;html=1;fixedSize=1;" parent="1" vertex="1">
          <mxGeometry x="568" y="2480" width="120" height="60" as="geometry" />
        </mxCell>
        <mxCell id="9SB0VbaatCXMWt_Crm9O-157" value="end Min" style="html=1;dashed=0;whiteSpace=wrap;shape=mxgraph.dfd.start" parent="1" vertex="1">
          <mxGeometry x="545" y="3252" width="80" height="30" as="geometry" />
        </mxCell>
        <mxCell id="9SB0VbaatCXMWt_Crm9O-158" style="edgeStyle=orthogonalEdgeStyle;rounded=0;orthogonalLoop=1;jettySize=auto;html=1;exitX=0.5;exitY=1;exitDx=0;exitDy=0;" parent="1" edge="1" source="Jw9C-Zn7AZ0Pdl78Gq-7-17">
          <mxGeometry relative="1" as="geometry">
            <mxPoint x="705" y="3092" as="sourcePoint" />
            <mxPoint x="585" y="3122" as="targetPoint" />
            <Array as="points">
              <mxPoint x="717" y="3122" />
            </Array>
          </mxGeometry>
        </mxCell>
        <mxCell id="9SB0VbaatCXMWt_Crm9O-159" value="end CubicRoot" style="html=1;dashed=0;whiteSpace=wrap;shape=mxgraph.dfd.start" parent="1" vertex="1">
          <mxGeometry x="60" y="2700" width="102" height="30" as="geometry" />
        </mxCell>
        <mxCell id="9SB0VbaatCXMWt_Crm9O-160" style="edgeStyle=orthogonalEdgeStyle;rounded=0;orthogonalLoop=1;jettySize=auto;html=1;exitX=0.5;exitY=1;exitDx=0;exitDy=0;entryX=0.5;entryY=0.5;entryDx=0;entryDy=-15;entryPerimeter=0;" parent="1" target="9SB0VbaatCXMWt_Crm9O-159" edge="1">
          <mxGeometry relative="1" as="geometry">
            <mxPoint x="111" y="2640" as="sourcePoint" />
          </mxGeometry>
        </mxCell>
        <mxCell id="9SB0VbaatCXMWt_Crm9O-161" value="end CompGreater" style="html=1;dashed=0;whiteSpace=wrap;shape=mxgraph.dfd.start" parent="1" vertex="1">
          <mxGeometry x="305" y="2600" width="112" height="30" as="geometry" />
        </mxCell>
        <mxCell id="9SB0VbaatCXMWt_Crm9O-162" style="edgeStyle=orthogonalEdgeStyle;rounded=0;orthogonalLoop=1;jettySize=auto;html=1;exitX=0.5;exitY=1;exitDx=0;exitDy=0;entryX=0.5;entryY=0.5;entryDx=0;entryDy=-15;entryPerimeter=0;" parent="1" target="9SB0VbaatCXMWt_Crm9O-161" edge="1">
          <mxGeometry relative="1" as="geometry">
            <mxPoint x="361" y="2540" as="sourcePoint" />
          </mxGeometry>
        </mxCell>
        <mxCell id="9SB0VbaatCXMWt_Crm9O-163" value="end CompLower" style="html=1;dashed=0;whiteSpace=wrap;shape=mxgraph.dfd.start" parent="1" vertex="1">
          <mxGeometry x="576" y="2600" width="104" height="30" as="geometry" />
        </mxCell>
        <mxCell id="9SB0VbaatCXMWt_Crm9O-164" style="edgeStyle=orthogonalEdgeStyle;rounded=0;orthogonalLoop=1;jettySize=auto;html=1;exitX=0.5;exitY=1;exitDx=0;exitDy=0;entryX=0.5;entryY=0.5;entryDx=0;entryDy=-15;entryPerimeter=0;" parent="1" target="9SB0VbaatCXMWt_Crm9O-163" edge="1">
          <mxGeometry relative="1" as="geometry">
            <mxPoint x="628" y="2540" as="sourcePoint" />
          </mxGeometry>
        </mxCell>
        <mxCell id="9SB0VbaatCXMWt_Crm9O-166" style="edgeStyle=orthogonalEdgeStyle;rounded=0;orthogonalLoop=1;jettySize=auto;html=1;exitX=0.5;exitY=0.5;exitDx=0;exitDy=15;exitPerimeter=0;" parent="1" source="9SB0VbaatCXMWt_Crm9O-167" target="9SB0VbaatCXMWt_Crm9O-171" edge="1">
          <mxGeometry relative="1" as="geometry" />
        </mxCell>
        <mxCell id="9SB0VbaatCXMWt_Crm9O-167" value="start Max" style="html=1;dashed=0;whiteSpace=wrap;shape=mxgraph.dfd.start" parent="1" vertex="1">
          <mxGeometry x="243" y="2658.5" width="100" height="30" as="geometry" />
        </mxCell>
        <mxCell id="9SB0VbaatCXMWt_Crm9O-168" value="No" style="edgeStyle=orthogonalEdgeStyle;rounded=0;orthogonalLoop=1;jettySize=auto;html=1;exitX=1;exitY=0.5;exitDx=0;exitDy=0;exitPerimeter=0;entryX=0.5;entryY=0;entryDx=0;entryDy=0;" parent="1" source="9SB0VbaatCXMWt_Crm9O-170" edge="1" target="Jw9C-Zn7AZ0Pdl78Gq-7-15">
          <mxGeometry x="-0.4487" y="17" relative="1" as="geometry">
            <mxPoint x="413" y="3018.5" as="targetPoint" />
            <mxPoint as="offset" />
          </mxGeometry>
        </mxCell>
        <mxCell id="9SB0VbaatCXMWt_Crm9O-169" value="Yes" style="edgeStyle=orthogonalEdgeStyle;rounded=0;orthogonalLoop=1;jettySize=auto;html=1;" parent="1" source="9SB0VbaatCXMWt_Crm9O-170" edge="1">
          <mxGeometry x="-0.06" y="17" relative="1" as="geometry">
            <mxPoint x="293" y="3018.5" as="targetPoint" />
            <mxPoint as="offset" />
          </mxGeometry>
        </mxCell>
        <mxCell id="9SB0VbaatCXMWt_Crm9O-170" value="a &amp;gt;= b" style="strokeWidth=2;html=1;shape=mxgraph.flowchart.decision;whiteSpace=wrap;" parent="1" vertex="1">
          <mxGeometry x="243" y="2868.5" width="100" height="100" as="geometry" />
        </mxCell>
        <mxCell id="9SB0VbaatCXMWt_Crm9O-171" value="arguments&lt;div&gt;a, b&lt;/div&gt;" style="shape=parallelogram;perimeter=parallelogramPerimeter;whiteSpace=wrap;html=1;fixedSize=1;" parent="1" vertex="1">
          <mxGeometry x="233" y="2748.5" width="120" height="60" as="geometry" />
        </mxCell>
        <mxCell id="9SB0VbaatCXMWt_Crm9O-172" style="edgeStyle=orthogonalEdgeStyle;rounded=0;orthogonalLoop=1;jettySize=auto;html=1;exitX=0.5;exitY=1;exitDx=0;exitDy=0;entryX=0.5;entryY=0;entryDx=0;entryDy=0;entryPerimeter=0;" parent="1" source="9SB0VbaatCXMWt_Crm9O-171" target="9SB0VbaatCXMWt_Crm9O-170" edge="1">
          <mxGeometry relative="1" as="geometry" />
        </mxCell>
        <mxCell id="9SB0VbaatCXMWt_Crm9O-173" value="" style="edgeStyle=orthogonalEdgeStyle;rounded=0;orthogonalLoop=1;jettySize=auto;html=1;" parent="1" source="Jw9C-Zn7AZ0Pdl78Gq-7-10" target="9SB0VbaatCXMWt_Crm9O-175" edge="1">
          <mxGeometry relative="1" as="geometry" />
        </mxCell>
        <mxCell id="9SB0VbaatCXMWt_Crm9O-175" value="end Max" style="html=1;dashed=0;whiteSpace=wrap;shape=mxgraph.dfd.start" parent="1" vertex="1">
          <mxGeometry x="253" y="3238.5" width="80" height="30" as="geometry" />
        </mxCell>
        <mxCell id="9SB0VbaatCXMWt_Crm9O-176" style="edgeStyle=orthogonalEdgeStyle;rounded=0;orthogonalLoop=1;jettySize=auto;html=1;exitX=0.559;exitY=0.983;exitDx=0;exitDy=0;exitPerimeter=0;" parent="1" edge="1" source="Jw9C-Zn7AZ0Pdl78Gq-7-15">
          <mxGeometry relative="1" as="geometry">
            <mxPoint x="413" y="3078.5" as="sourcePoint" />
            <mxPoint x="293" y="3108.5" as="targetPoint" />
            <Array as="points">
              <mxPoint x="422" y="3109" />
            </Array>
          </mxGeometry>
        </mxCell>
        <mxCell id="ytkeiAz3e-5avgEN_o9H-3" value="true" style="edgeStyle=orthogonalEdgeStyle;rounded=0;orthogonalLoop=1;jettySize=auto;html=1;entryX=0.5;entryY=0;entryDx=0;entryDy=0;exitX=0;exitY=0.5;exitDx=0;exitDy=0;" parent="1" source="9SB0VbaatCXMWt_Crm9O-4" target="ytkeiAz3e-5avgEN_o9H-1" edge="1">
          <mxGeometry x="-0.564" y="-11" relative="1" as="geometry">
            <mxPoint x="668" y="980" as="sourcePoint" />
            <mxPoint x="528" y="1215" as="targetPoint" />
            <mxPoint as="offset" />
          </mxGeometry>
        </mxCell>
        <mxCell id="ytkeiAz3e-5avgEN_o9H-1" value="l2" style="ellipse;whiteSpace=wrap;html=1;aspect=fixed;" parent="1" vertex="1">
          <mxGeometry x="520" y="1020" width="33.5" height="33.5" as="geometry" />
        </mxCell>
        <mxCell id="ytkeiAz3e-5avgEN_o9H-5" value="" style="edgeStyle=orthogonalEdgeStyle;rounded=0;orthogonalLoop=1;jettySize=auto;html=1;" parent="1" source="ytkeiAz3e-5avgEN_o9H-4" target="9SB0VbaatCXMWt_Crm9O-91" edge="1">
          <mxGeometry relative="1" as="geometry" />
        </mxCell>
        <mxCell id="ytkeiAz3e-5avgEN_o9H-4" value="l2" style="ellipse;whiteSpace=wrap;html=1;aspect=fixed;" parent="1" vertex="1">
          <mxGeometry x="311.5" y="1150" width="31" height="31" as="geometry" />
        </mxCell>
        <mxCell id="ytkeiAz3e-5avgEN_o9H-7" value="" style="edgeStyle=orthogonalEdgeStyle;rounded=0;orthogonalLoop=1;jettySize=auto;html=1;exitX=0.5;exitY=1;exitDx=0;exitDy=0;entryX=0.5;entryY=0;entryDx=0;entryDy=0;" parent="1" source="9SB0VbaatCXMWt_Crm9O-4" target="ytkeiAz3e-5avgEN_o9H-6" edge="1">
          <mxGeometry relative="1" as="geometry">
            <mxPoint x="708" y="1020" as="sourcePoint" />
            <mxPoint x="708" y="1155" as="targetPoint" />
          </mxGeometry>
        </mxCell>
        <mxCell id="ytkeiAz3e-5avgEN_o9H-8" value="false" style="edgeLabel;html=1;align=center;verticalAlign=middle;resizable=0;points=[];" parent="ytkeiAz3e-5avgEN_o9H-7" vertex="1" connectable="0">
          <mxGeometry x="-0.5865" y="1" relative="1" as="geometry">
            <mxPoint x="16" y="12" as="offset" />
          </mxGeometry>
        </mxCell>
        <mxCell id="ytkeiAz3e-5avgEN_o9H-6" value="l3" style="ellipse;whiteSpace=wrap;html=1;aspect=fixed;" parent="1" vertex="1">
          <mxGeometry x="691" y="1021" width="33.5" height="33.5" as="geometry" />
        </mxCell>
        <mxCell id="ytkeiAz3e-5avgEN_o9H-10" value="l3" style="ellipse;whiteSpace=wrap;html=1;aspect=fixed;" parent="1" vertex="1">
          <mxGeometry x="491" y="1150" width="33" height="33" as="geometry" />
        </mxCell>
        <mxCell id="ytkeiAz3e-5avgEN_o9H-18" value="" style="edgeStyle=orthogonalEdgeStyle;rounded=0;orthogonalLoop=1;jettySize=auto;html=1;" parent="1" source="ytkeiAz3e-5avgEN_o9H-15" target="ml4NnkUa15ox4P1RjirH-51" edge="1">
          <mxGeometry relative="1" as="geometry" />
        </mxCell>
        <mxCell id="ytkeiAz3e-5avgEN_o9H-15" value="l1" style="ellipse;whiteSpace=wrap;html=1;aspect=fixed;" parent="1" vertex="1">
          <mxGeometry x="85.5" y="1130" width="31" height="31" as="geometry" />
        </mxCell>
        <mxCell id="ytkeiAz3e-5avgEN_o9H-16" value="" style="edgeStyle=orthogonalEdgeStyle;rounded=0;orthogonalLoop=1;jettySize=auto;html=1;exitX=0.5;exitY=1;exitDx=0;exitDy=0;" parent="1" source="ml4NnkUa15ox4P1RjirH-34" edge="1">
          <mxGeometry relative="1" as="geometry">
            <mxPoint x="101" y="1030" as="targetPoint" />
            <Array as="points">
              <mxPoint x="264" y="1030" />
            </Array>
            <mxPoint x="264" y="993" as="sourcePoint" />
          </mxGeometry>
        </mxCell>
        <mxCell id="ytkeiAz3e-5avgEN_o9H-14" value="l1" style="ellipse;whiteSpace=wrap;html=1;aspect=fixed;" parent="1" vertex="1">
          <mxGeometry x="87" y="1054.5" width="29.25" height="29.25" as="geometry" />
        </mxCell>
        <mxCell id="ytkeiAz3e-5avgEN_o9H-20" value="not needed" style="edgeStyle=orthogonalEdgeStyle;rounded=0;orthogonalLoop=1;jettySize=auto;html=1;exitX=1;exitY=0.5;exitDx=0;exitDy=0;" parent="1" source="ml4NnkUa15ox4P1RjirH-26" target="ytkeiAz3e-5avgEN_o9H-19" edge="1">
          <mxGeometry x="-0.0002" y="-15" relative="1" as="geometry">
            <mxPoint x="102" y="1676" as="targetPoint" />
            <Array as="points" />
            <mxPoint y="-30" as="offset" />
            <mxPoint x="141" y="715" as="sourcePoint" />
          </mxGeometry>
        </mxCell>
        <mxCell id="ytkeiAz3e-5avgEN_o9H-19" value="l4" style="ellipse;whiteSpace=wrap;html=1;aspect=fixed;" parent="1" vertex="1">
          <mxGeometry x="248.88" y="700.37" width="29.25" height="29.25" as="geometry" />
        </mxCell>
        <mxCell id="ytkeiAz3e-5avgEN_o9H-23" value="" style="edgeStyle=orthogonalEdgeStyle;rounded=0;orthogonalLoop=1;jettySize=auto;html=1;" parent="1" source="ytkeiAz3e-5avgEN_o9H-21" edge="1">
          <mxGeometry relative="1" as="geometry">
            <mxPoint x="101" y="1732" as="targetPoint" />
          </mxGeometry>
        </mxCell>
        <mxCell id="ytkeiAz3e-5avgEN_o9H-21" value="l4" style="ellipse;whiteSpace=wrap;html=1;aspect=fixed;" parent="1" vertex="1">
          <mxGeometry x="253" y="1717" width="29.25" height="29.25" as="geometry" />
        </mxCell>
        <mxCell id="ytkeiAz3e-5avgEN_o9H-24" value="&amp;nbsp;переход на&lt;div&gt;&amp;nbsp;страницу 2&lt;/div&gt;" style="strokeWidth=2;html=1;shape=mxgraph.flowchart.annotation_1;align=left;pointerEvents=1;" parent="1" vertex="1">
          <mxGeometry x="331" y="692.49" width="50" height="45" as="geometry" />
        </mxCell>
        <mxCell id="ytkeiAz3e-5avgEN_o9H-25" value="" style="endArrow=none;dashed=1;html=1;rounded=0;exitX=1;exitY=0.5;exitDx=0;exitDy=0;entryX=0;entryY=0.5;entryDx=0;entryDy=0;entryPerimeter=0;" parent="1" source="ytkeiAz3e-5avgEN_o9H-19" target="ytkeiAz3e-5avgEN_o9H-24" edge="1">
          <mxGeometry width="50" height="50" relative="1" as="geometry">
            <mxPoint x="280" y="770" as="sourcePoint" />
            <mxPoint x="330" y="720" as="targetPoint" />
          </mxGeometry>
        </mxCell>
        <mxCell id="ytkeiAz3e-5avgEN_o9H-26" value="&amp;nbsp;переход на&lt;div&gt;&amp;nbsp;страницу 2&lt;/div&gt;" style="strokeWidth=2;html=1;shape=mxgraph.flowchart.annotation_1;align=left;pointerEvents=1;" parent="1" vertex="1">
          <mxGeometry x="777" y="1015.25" width="50" height="45" as="geometry" />
        </mxCell>
        <mxCell id="ytkeiAz3e-5avgEN_o9H-27" value="" style="endArrow=none;dashed=1;html=1;rounded=0;entryX=0;entryY=0.5;entryDx=0;entryDy=0;entryPerimeter=0;exitX=1;exitY=0.5;exitDx=0;exitDy=0;" parent="1" source="ytkeiAz3e-5avgEN_o9H-6" target="ytkeiAz3e-5avgEN_o9H-26" edge="1">
          <mxGeometry width="50" height="50" relative="1" as="geometry">
            <mxPoint x="760" y="1038" as="sourcePoint" />
            <mxPoint x="776" y="1042.76" as="targetPoint" />
          </mxGeometry>
        </mxCell>
        <mxCell id="ytkeiAz3e-5avgEN_o9H-28" value="&amp;nbsp;переход на&lt;div&gt;&amp;nbsp;страницу 2&lt;/div&gt;" style="strokeWidth=2;html=1;shape=mxgraph.flowchart.annotation_1;align=left;pointerEvents=1;" parent="1" vertex="1">
          <mxGeometry x="608" y="1015.25" width="50" height="45" as="geometry" />
        </mxCell>
        <mxCell id="ytkeiAz3e-5avgEN_o9H-29" value="" style="endArrow=none;dashed=1;html=1;rounded=0;exitX=1;exitY=0.5;exitDx=0;exitDy=0;entryX=0;entryY=0.5;entryDx=0;entryDy=0;entryPerimeter=0;" parent="1" source="ytkeiAz3e-5avgEN_o9H-1" target="ytkeiAz3e-5avgEN_o9H-28" edge="1">
          <mxGeometry width="50" height="50" relative="1" as="geometry">
            <mxPoint x="555" y="1037.76" as="sourcePoint" />
            <mxPoint x="607" y="1042.76" as="targetPoint" />
          </mxGeometry>
        </mxCell>
        <mxCell id="ytkeiAz3e-5avgEN_o9H-30" value="&amp;nbsp;переход на&lt;div&gt;&amp;nbsp;страницу 2&lt;/div&gt;" style="strokeWidth=2;html=1;shape=mxgraph.flowchart.annotation_1;align=left;pointerEvents=1;" parent="1" vertex="1">
          <mxGeometry x="169.5" y="1046.63" width="50" height="45" as="geometry" />
        </mxCell>
        <mxCell id="ytkeiAz3e-5avgEN_o9H-31" value="" style="endArrow=none;dashed=1;html=1;rounded=0;entryX=0;entryY=0.5;entryDx=0;entryDy=0;entryPerimeter=0;exitX=1;exitY=0.5;exitDx=0;exitDy=0;" parent="1" source="ytkeiAz3e-5avgEN_o9H-14" target="ytkeiAz3e-5avgEN_o9H-30" edge="1">
          <mxGeometry width="50" height="50" relative="1" as="geometry">
            <mxPoint x="130" y="1069" as="sourcePoint" />
            <mxPoint x="168.5" y="1074.14" as="targetPoint" />
          </mxGeometry>
        </mxCell>
        <mxCell id="Jw9C-Zn7AZ0Pdl78Gq-7-1" value="&amp;nbsp; abs(ln(x²)) + 2 + 1 / 5" style="strokeWidth=2;html=1;shape=mxgraph.flowchart.annotation_1;align=left;pointerEvents=1;" vertex="1" parent="1">
          <mxGeometry x="622" y="1233.5" width="50" height="45" as="geometry" />
        </mxCell>
        <mxCell id="Jw9C-Zn7AZ0Pdl78Gq-7-2" value="" style="endArrow=none;dashed=1;html=1;rounded=0;exitX=1;exitY=0.5;exitDx=0;exitDy=0;entryX=0;entryY=0.5;entryDx=0;entryDy=0;entryPerimeter=0;" edge="1" parent="1" target="Jw9C-Zn7AZ0Pdl78Gq-7-1">
          <mxGeometry width="50" height="50" relative="1" as="geometry">
            <mxPoint x="568" y="1255.25" as="sourcePoint" />
            <mxPoint x="621" y="1261.01" as="targetPoint" />
          </mxGeometry>
        </mxCell>
        <mxCell id="Jw9C-Zn7AZ0Pdl78Gq-7-3" value="&amp;nbsp; ℯ^(x / π) + nroot(x² + 1,3) + 1 + 1 / 4" style="strokeWidth=2;html=1;shape=mxgraph.flowchart.annotation_1;align=left;pointerEvents=1;" vertex="1" parent="1">
          <mxGeometry x="622" y="1343.5" width="50" height="45" as="geometry" />
        </mxCell>
        <mxCell id="Jw9C-Zn7AZ0Pdl78Gq-7-4" value="" style="endArrow=none;dashed=1;html=1;rounded=0;exitX=1;exitY=0.5;exitDx=0;exitDy=0;entryX=0;entryY=0.5;entryDx=0;entryDy=0;entryPerimeter=0;" edge="1" parent="1" target="Jw9C-Zn7AZ0Pdl78Gq-7-3">
          <mxGeometry width="50" height="50" relative="1" as="geometry">
            <mxPoint x="568" y="1365.25" as="sourcePoint" />
            <mxPoint x="621" y="1371.01" as="targetPoint" />
          </mxGeometry>
        </mxCell>
        <mxCell id="Jw9C-Zn7AZ0Pdl78Gq-7-5" value="return&lt;br&gt;numerator / denominator" style="rounded=0;whiteSpace=wrap;html=1;" vertex="1" parent="1">
          <mxGeometry x="449" y="1447" width="120" height="60" as="geometry" />
        </mxCell>
        <mxCell id="Jw9C-Zn7AZ0Pdl78Gq-7-7" value="" style="edgeStyle=orthogonalEdgeStyle;rounded=0;orthogonalLoop=1;jettySize=auto;html=1;" edge="1" parent="1" target="Jw9C-Zn7AZ0Pdl78Gq-7-6">
          <mxGeometry relative="1" as="geometry">
            <mxPoint x="508" y="1506" as="sourcePoint" />
            <mxPoint x="508" y="1610" as="targetPoint" />
          </mxGeometry>
        </mxCell>
        <mxCell id="Jw9C-Zn7AZ0Pdl78Gq-7-8" value="" style="edgeStyle=orthogonalEdgeStyle;rounded=0;orthogonalLoop=1;jettySize=auto;html=1;" edge="1" parent="1" source="Jw9C-Zn7AZ0Pdl78Gq-7-6" target="9SB0VbaatCXMWt_Crm9O-83">
          <mxGeometry relative="1" as="geometry" />
        </mxCell>
        <mxCell id="Jw9C-Zn7AZ0Pdl78Gq-7-6" value="return values" style="shape=parallelogram;perimeter=parallelogramPerimeter;whiteSpace=wrap;html=1;fixedSize=1;" vertex="1" parent="1">
          <mxGeometry x="446" y="1537" width="120" height="60" as="geometry" />
        </mxCell>
        <mxCell id="Jw9C-Zn7AZ0Pdl78Gq-7-11" value="" style="edgeStyle=orthogonalEdgeStyle;rounded=0;orthogonalLoop=1;jettySize=auto;html=1;" edge="1" parent="1" target="Jw9C-Zn7AZ0Pdl78Gq-7-10">
          <mxGeometry relative="1" as="geometry">
            <mxPoint x="293" y="3078.5" as="sourcePoint" />
            <mxPoint x="293" y="3239" as="targetPoint" />
          </mxGeometry>
        </mxCell>
        <mxCell id="Jw9C-Zn7AZ0Pdl78Gq-7-10" value="return values" style="shape=parallelogram;perimeter=parallelogramPerimeter;whiteSpace=wrap;html=1;fixedSize=1;" vertex="1" parent="1">
          <mxGeometry x="233" y="3140" width="120" height="60" as="geometry" />
        </mxCell>
        <mxCell id="Jw9C-Zn7AZ0Pdl78Gq-7-13" value="" style="edgeStyle=orthogonalEdgeStyle;rounded=0;orthogonalLoop=1;jettySize=auto;html=1;" edge="1" parent="1" target="Jw9C-Zn7AZ0Pdl78Gq-7-12">
          <mxGeometry relative="1" as="geometry">
            <mxPoint x="585" y="3092" as="sourcePoint" />
            <mxPoint x="585" y="3252" as="targetPoint" />
          </mxGeometry>
        </mxCell>
        <mxCell id="Jw9C-Zn7AZ0Pdl78Gq-7-12" value="return values" style="shape=parallelogram;perimeter=parallelogramPerimeter;whiteSpace=wrap;html=1;fixedSize=1;" vertex="1" parent="1">
          <mxGeometry x="525" y="3160" width="120" height="60" as="geometry" />
        </mxCell>
        <mxCell id="Jw9C-Zn7AZ0Pdl78Gq-7-14" value="write a&lt;div&gt;to Result&lt;/div&gt;" style="rounded=0;whiteSpace=wrap;html=1;" vertex="1" parent="1">
          <mxGeometry x="233" y="3018.5" width="120" height="60" as="geometry" />
        </mxCell>
        <mxCell id="Jw9C-Zn7AZ0Pdl78Gq-7-15" value="write b&lt;div&gt;to Result&lt;/div&gt;" style="rounded=0;whiteSpace=wrap;html=1;" vertex="1" parent="1">
          <mxGeometry x="368" y="3018.5" width="120" height="60" as="geometry" />
        </mxCell>
        <mxCell id="Jw9C-Zn7AZ0Pdl78Gq-7-16" value="write b&lt;div&gt;to Result&lt;/div&gt;" style="rounded=0;whiteSpace=wrap;html=1;" vertex="1" parent="1">
          <mxGeometry x="525" y="3032" width="120" height="60" as="geometry" />
        </mxCell>
        <mxCell id="Jw9C-Zn7AZ0Pdl78Gq-7-17" value="write a&lt;div&gt;to Result&lt;/div&gt;" style="rounded=0;whiteSpace=wrap;html=1;" vertex="1" parent="1">
          <mxGeometry x="657" y="3032" width="120" height="60" as="geometry" />
        </mxCell>
      </root>
    </mxGraphModel>
  </diagram>
</mxfile>
